<svg width="76" height="16" viewBox="0 0 76 16" fill="none" xmlns="http://www.w3.org/2000/svg">
<path d="M6.1021 3.60575C6.94653 2.09092 7.36873 1.3335 8 1.3335C8.63126 1.3335 9.05346 2.09091 9.89786 3.60574L10.1163 3.99765C10.3563 4.42812 10.4763 4.64336 10.6634 4.78537C10.8505 4.92738 11.0834 4.9801 11.5494 5.08553L11.9737 5.18152C13.6134 5.55254 14.4333 5.73804 14.6284 6.36532C14.8235 6.99256 14.2645 7.64623 13.1466 8.95343L12.8574 9.29163C12.5397 9.6631 12.3809 9.84883 12.3094 10.0786C12.238 10.3084 12.262 10.5562 12.31 11.0519L12.3537 11.5031C12.5227 13.2472 12.6073 14.1193 12.0966 14.507C11.5859 14.8946 10.8182 14.5412 9.28286 13.8343L8.88566 13.6514C8.4494 13.4505 8.23126 13.35 8 13.35C7.76873 13.35 7.5506 13.4505 7.11433 13.6514L6.71713 13.8343C5.18178 14.5412 4.41412 14.8946 3.90343 14.507C3.39274 14.1193 3.47725 13.2472 3.64626 11.5031L3.68998 11.0519C3.73802 10.5562 3.76203 10.3084 3.69057 10.0786C3.61912 9.84883 3.46028 9.6631 3.14261 9.29163L2.8534 8.95343C1.7355 7.64623 1.17654 6.99256 1.37161 6.36532C1.56668 5.73804 2.38657 5.55254 4.02636 5.18152L4.45059 5.08553C4.91656 4.9801 5.14955 4.92738 5.33662 4.78537C5.5237 4.64336 5.64368 4.42812 5.88364 3.99765L6.1021 3.60575Z" fill="yellow" stroke="#48ff91" stroke-width="0.00064"/>
<path d="M21.1021 3.60575C21.9465 2.09092 22.3687 1.3335 23 1.3335C23.6313 1.3335 24.0535 2.09091 24.8979 3.60574L25.1163 3.99765C25.3563 4.42812 25.4763 4.64336 25.6634 4.78537C25.8505 4.92738 26.0834 4.9801 26.5494 5.08553L26.9737 5.18152C28.6134 5.55254 29.4333 5.73804 29.6284 6.36532C29.8235 6.99256 29.2645 7.64623 28.1466 8.95343L27.8574 9.29163C27.5397 9.6631 27.3809 9.84883 27.3094 10.0786C27.238 10.3084 27.262 10.5562 27.31 11.0519L27.3537 11.5031C27.5227 13.2472 27.6073 14.1193 27.0966 14.507C26.5859 14.8946 25.8182 14.5412 24.2829 13.8343L23.8857 13.6514C23.4494 13.4505 23.2313 13.35 23 13.35C22.7687 13.35 22.5506 13.4505 22.1143 13.6514L21.7171 13.8343C20.1818 14.5412 19.4141 14.8946 18.9034 14.507C18.3927 14.1193 18.4772 13.2472 18.6463 11.5031L18.69 11.0519C18.738 10.5562 18.762 10.3084 18.6906 10.0786C18.6191 9.84883 18.4603 9.6631 18.1426 9.29163L17.8534 8.95343C16.7355 7.64623 16.1765 6.99256 16.3716 6.36532C16.5667 5.73804 17.3866 5.55254 19.0264 5.18152L19.4506 5.08553C19.9166 4.9801 20.1495 4.92738 20.3366 4.78537C20.5237 4.64336 20.6437 4.42812 20.8836 3.99765L21.1021 3.60575Z" fill="yellow" stroke="#48ff91" stroke-width="0.00064"/>
<path d="M36.1021 3.60575C36.9465 2.09092 37.3687 1.3335 38 1.3335C38.6313 1.3335 39.0535 2.09091 39.8979 3.60574L40.1163 3.99765C40.3563 4.42812 40.4763 4.64336 40.6634 4.78537C40.8505 4.92738 41.0834 4.9801 41.5494 5.08553L41.9737 5.18152C43.6134 5.55254 44.4333 5.73804 44.6284 6.36532C44.8235 6.99256 44.2645 7.64623 43.1466 8.95343L42.8574 9.29163C42.5397 9.6631 42.3809 9.84883 42.3094 10.0786C42.238 10.3084 42.262 10.5562 42.31 11.0519L42.3537 11.5031C42.5227 13.2472 42.6073 14.1193 42.0966 14.507C41.5859 14.8946 40.8182 14.5412 39.2829 13.8343L38.8857 13.6514C38.4494 13.4505 38.2313 13.35 38 13.35C37.7687 13.35 37.5506 13.4505 37.1143 13.6514L36.7171 13.8343C35.1818 14.5412 34.4141 14.8946 33.9034 14.507C33.3927 14.1193 33.4772 13.2472 33.6463 11.5031L33.69 11.0519C33.738 10.5562 33.762 10.3084 33.6906 10.0786C33.6191 9.84883 33.4603 9.6631 33.1426 9.29163L32.8534 8.95343C31.7355 7.64623 31.1765 6.99256 31.3716 6.36532C31.5667 5.73804 32.3866 5.55254 34.0264 5.18152L34.4506 5.08553C34.9166 4.9801 35.1495 4.92738 35.3366 4.78537C35.5237 4.64336 35.6437 4.42812 35.8836 3.99765L36.1021 3.60575Z" fill="yellow" stroke="#48ff91" stroke-width="0.00064"/>
<path d="M51.1021 3.60575C51.9465 2.09092 52.3687 1.3335 53 1.3335C53.6313 1.3335 54.0535 2.09091 54.8979 3.60574L55.1163 3.99765C55.3563 4.42812 55.4763 4.64336 55.6634 4.78537C55.8505 4.92738 56.0834 4.9801 56.5494 5.08553L56.9737 5.18152C58.6134 5.55254 59.4333 5.73804 59.6284 6.36532C59.8235 6.99256 59.2645 7.64623 58.1466 8.95343L57.8574 9.29163C57.5397 9.6631 57.3809 9.84883 57.3094 10.0786C57.238 10.3084 57.262 10.5562 57.31 11.0519L57.3537 11.5031C57.5227 13.2472 57.6073 14.1193 57.0966 14.507C56.5859 14.8946 55.8182 14.5412 54.2829 13.8343L53.8857 13.6514C53.4494 13.4505 53.2313 13.35 53 13.35C52.7687 13.35 52.5506 13.4505 52.1143 13.6514L51.7171 13.8343C50.1818 14.5412 49.4141 14.8946 48.9034 14.507C48.3927 14.1193 48.4773 13.2472 48.6463 11.5031L48.69 11.0519C48.738 10.5562 48.762 10.3084 48.6906 10.0786C48.6191 9.84883 48.4603 9.6631 48.1426 9.29163L47.8534 8.95343C46.7355 7.64623 46.1765 6.99256 46.3716 6.36532C46.5667 5.73804 47.3866 5.55254 49.0264 5.18152L49.4506 5.08553C49.9166 4.9801 50.1496 4.92738 50.3366 4.78537C50.5237 4.64336 50.6437 4.42812 50.8836 3.99765L51.1021 3.60575Z" fill="yellow" stroke="#48ff91" stroke-width="0.00064"/>
<path d="M66.1021 3.60575C66.9465 2.09092 67.3687 1.3335 68 1.3335C68.6313 1.3335 69.0535 2.09091 69.8979 3.60574L70.1163 3.99765C70.3563 4.42812 70.4763 4.64336 70.6634 4.78537C70.8505 4.92738 71.0834 4.9801 71.5494 5.08553L71.9737 5.18152C73.6134 5.55254 74.4333 5.73804 74.6284 6.36532C74.8235 6.99256 74.2645 7.64623 73.1466 8.95343L72.8574 9.29163C72.5397 9.6631 72.3809 9.84883 72.3094 10.0786C72.238 10.3084 72.262 10.5562 72.31 11.0519L72.3537 11.5031C72.5227 13.2472 72.6073 14.1193 72.0966 14.507C71.5859 14.8946 70.8182 14.5412 69.2829 13.8343L68.8857 13.6514C68.4494 13.4505 68.2313 13.35 68 13.35C67.7687 13.35 67.5506 13.4505 67.1143 13.6514L66.7171 13.8343C65.1818 14.5412 64.4141 14.8946 63.9034 14.507C63.3927 14.1193 63.4773 13.2472 63.6463 11.5031L63.69 11.0519C63.738 10.5562 63.762 10.3084 63.6906 10.0786C63.6191 9.84883 63.4603 9.6631 63.1426 9.29163L62.8534 8.95343C61.7355 7.64623 61.1765 6.99256 61.3716 6.36532C61.5667 5.73804 62.3866 5.55254 64.0264 5.18152L64.4506 5.08553C64.9166 4.9801 65.1496 4.92738 65.3366 4.78537C65.5237 4.64336 65.6437 4.42812 65.8836 3.99765L66.1021 3.60575Z" fill="yellow" stroke="#48ff91" stroke-width="0.00064"/>
</svg>
